<svg width="25" height="22" viewBox="0 0 25 22" fill="none" xmlns="http://www.w3.org/2000/svg">
<path d="M18.7 12.0137C20.1819 12.0137 21.5236 12.0979 22.3489 12.2547C22.3618 12.2547 23.117 12.41 23.3688 12.5102C23.7321 12.667 24.0396 12.95 24.2356 13.3043C24.3758 13.5873 24.4444 13.8864 24.4444 14.1985C24.4316 14.5237 24.2213 15.1349 24.1226 15.3758C23.509 16.964 21.495 19.9995 20.2662 21.1638C20.0703 21.3612 19.8328 21.5746 19.7771 21.6313C19.4681 21.8722 19.0919 22 18.6871 22C18.3223 22 17.959 21.8868 17.6658 21.6588C17.5134 21.55 17.2911 21.3333 17.1895 21.2318L17.1351 21.1769C15.8621 19.9865 13.9482 17.0206 13.3331 15.5167C13.32 15.5167 13.0136 14.7665 12.9516 14.3138L12.9412 14.1985V14.1419C12.9412 13.4886 13.3045 12.8789 13.8924 12.5668C14.2142 12.3969 15.1497 12.2402 15.164 12.2256C16.0022 12.0979 17.2882 12.0137 18.7 12.0137ZM5.7512 12.0884C6.33695 12.0884 6.8191 12.5353 6.88499 13.1117L6.89266 13.2469L7.20592 18.8431C7.20592 19.6589 6.55509 20.3194 5.7512 20.3194C4.99756 20.3194 4.37718 19.7389 4.30258 18.9941L4.29506 18.8431L4.60975 13.2469C4.60975 12.6067 5.1204 12.0884 5.7512 12.0884ZM5.75879 0C6.12068 0 6.484 0.113231 6.77866 0.339693C6.90561 0.43133 7.08117 0.597253 7.19498 0.708808L7.30934 0.823102C8.58096 2.01493 10.4963 4.97926 11.1113 6.4832C11.1231 6.4832 11.4306 7.2346 11.4928 7.68746L11.5033 7.80278V7.85939C11.5033 8.5112 11.1385 9.1209 10.5521 9.43301C10.2302 9.60431 9.29473 9.75964 9.28043 9.77416C8.44221 9.9019 7.15629 9.9861 5.74448 9.9861C4.26259 9.9861 2.92087 9.9019 2.09553 9.74512C2.08123 9.74512 1.32741 9.58979 1.07566 9.48963C0.712339 9.3343 0.404803 9.04977 0.208838 8.69556C0.0686591 8.41248 0 8.11344 0 7.80278C0.0128736 7.47615 0.223142 6.86644 0.320409 6.62546C0.935481 5.03587 2.94805 2.00041 4.17819 0.837619C4.37416 0.638739 4.61161 0.425342 4.66739 0.368727C4.97493 0.127748 5.35255 0 5.75879 0ZM18.6935 1.68056C19.4472 1.68056 20.0663 2.2611 20.1407 3.00591L20.1482 3.15694L19.835 8.75329C19.835 9.39349 19.3243 9.91175 18.6935 9.91175C18.1078 9.91175 17.6256 9.46489 17.5597 8.88846L17.5521 8.75329L17.2374 3.15694C17.2374 2.34108 17.8896 1.68056 18.6935 1.68056Z" fill="black"/>
</svg>
