<svg width="27" height="24" viewBox="0 0 27 24" fill="none" xmlns="http://www.w3.org/2000/svg">
<path fill-rule="evenodd" clip-rule="evenodd" d="M21.7176 14.6536C24.3078 14.6536 26.4149 16.7502 26.4149 19.3268C26.4149 21.9034 24.3078 24 21.7176 24C19.1259 24 17.0172 21.9034 17.0172 19.3268C17.0172 16.7502 19.1259 14.6536 21.7176 14.6536ZM21.7176 16.9177C20.3742 16.9177 19.2814 17.9985 19.2814 19.3268C19.2814 20.6566 20.3742 21.7358 21.7176 21.7358C23.0595 21.7358 24.1508 20.6566 24.1508 19.3268C24.1508 17.9985 23.0595 16.9177 21.7176 16.9177ZM10.6872 18.2533C11.3122 18.2533 11.8193 18.7605 11.8193 19.3854C11.8193 20.0103 11.3122 20.5174 10.6872 20.5174H1.1763C0.551396 20.5174 0.0442264 20.0103 0.0442264 19.3854C0.0442264 18.7605 0.551396 18.2533 1.1763 18.2533H10.6872ZM4.69887 0C7.29057 0 9.39774 2.09811 9.39774 4.67472C9.39774 7.25132 7.29057 9.34642 4.69887 9.34642C2.10868 9.34642 0 7.25132 0 4.67472C0 2.09811 2.10868 0 4.69887 0ZM4.69887 2.26415C3.35698 2.26415 2.26415 3.34491 2.26415 4.67472C2.26415 6.00302 3.35698 7.08226 4.69887 7.08226C6.04226 7.08226 7.13358 6.00302 7.13358 4.67472C7.13358 3.34491 6.04226 2.26415 4.69887 2.26415ZM24.4394 3.62325C25.0643 3.62325 25.5715 4.13041 25.5715 4.75532C25.5715 5.38023 25.0643 5.8874 24.4394 5.8874H14.93C14.3051 5.8874 13.7979 5.38023 13.7979 4.75532C13.7979 4.13041 14.3051 3.62325 14.93 3.62325H24.4394Z" fill="black"/>
</svg>
