<svg width="22" height="22" viewBox="0 0 22 22" fill="none" xmlns="http://www.w3.org/2000/svg">
<path d="M14.7948 1.9583C14.7508 2.2333 14.7288 2.50829 14.7288 2.78329C14.7288 5.25825 16.7307 7.25912 19.1947 7.25912C19.4697 7.25912 19.7337 7.22722 20.0087 7.18322V16.059C20.0087 19.789 17.8087 22 14.0688 22H5.94101C2.19997 22 0 19.789 0 16.059V7.92021C0 4.18027 2.19997 1.9583 5.94101 1.9583H14.7948ZM15.0159 8.6462C14.7178 8.6132 14.4219 8.7452 14.2448 8.9872L11.5839 12.4301L8.53587 10.0322C8.34887 9.88918 8.12888 9.83308 7.90888 9.85618C7.68998 9.88918 7.49199 10.0091 7.35889 10.1851L4.10404 14.4211L4.03694 14.5201C3.84994 14.871 3.93794 15.322 4.26794 15.5651C4.42193 15.6641 4.58693 15.7301 4.77393 15.7301C5.02802 15.7411 5.26892 15.608 5.42292 15.4001L8.18388 11.8461L11.3188 14.2011L11.4178 14.266C11.7698 14.453 12.2098 14.3661 12.4628 14.035L15.6418 9.93318L15.5978 9.95518C15.7738 9.71318 15.8068 9.40519 15.6858 9.13019C15.5659 8.8552 15.3008 8.6682 15.0159 8.6462ZM19.3488 0C20.8118 0 21.9998 1.18798 21.9998 2.65096C21.9998 4.11394 20.8118 5.30192 19.3488 5.30192C17.8858 5.30192 16.6979 4.11394 16.6979 2.65096C16.6979 1.18798 17.8858 0 19.3488 0Z" fill="black"/>
</svg>
