<svg width="25" height="24" viewBox="0 0 25 24" fill="none" xmlns="http://www.w3.org/2000/svg">
<path fill-rule="evenodd" clip-rule="evenodd" d="M11.1696 0C14.1048 0 16.4928 2.388 16.4928 5.3232V6.4416C16.4928 6.9384 16.0896 7.3416 15.5928 7.3416C15.096 7.3416 14.6928 6.9384 14.6928 6.4416V5.3232C14.6928 3.3792 13.1124 1.8 11.1696 1.8H5.3196C3.3792 1.8 1.8 3.3792 1.8 5.3232V18.678C1.8 20.6208 3.3792 22.2 5.3196 22.2H11.1828C13.1172 22.2 14.6928 20.6256 14.6928 18.6912V17.5596C14.6928 17.0628 15.096 16.6596 15.5928 16.6596C16.0896 16.6596 16.4928 17.0628 16.4928 17.5596V18.6912C16.4928 21.6192 14.1096 24 11.1828 24H5.3196C2.3868 24 0 21.6132 0 18.678V5.3232C0 2.388 2.3868 0 5.3196 0H11.1696ZM20.8657 7.8648L24.3793 11.3628C24.4107 11.3939 24.4387 11.4262 24.4644 11.4605L24.3793 11.3628C24.4218 11.4047 24.4596 11.4505 24.4925 11.4994C24.5069 11.5215 24.5208 11.5444 24.5337 11.5679C24.5442 11.5863 24.5538 11.6055 24.5628 11.625C24.5704 11.6422 24.5776 11.6594 24.5844 11.6769C24.5934 11.6997 24.6013 11.7232 24.6083 11.7469C24.6135 11.7656 24.6183 11.7843 24.6226 11.8032C24.6279 11.8261 24.6321 11.8492 24.6355 11.8724C24.6373 11.8875 24.6392 11.9034 24.6406 11.9193C24.6433 11.9467 24.6445 11.9733 24.6445 12L24.6384 12.0744L24.6359 12.1221C24.6357 12.1241 24.6354 12.1261 24.6351 12.1282L24.6445 12C24.6445 12.0666 24.6371 12.1326 24.6228 12.1967C24.6183 12.2157 24.6135 12.2344 24.6081 12.2528C24.6013 12.2768 24.5934 12.3003 24.5845 12.3233C24.5776 12.3406 24.5704 12.3578 24.5626 12.3748C24.5538 12.3945 24.5442 12.4137 24.5339 12.4326C24.5208 12.4556 24.5069 12.4785 24.492 12.5007C24.4836 12.5138 24.4743 12.5268 24.4647 12.5396C24.4362 12.5772 24.405 12.6125 24.3713 12.6453L20.8657 16.1364C20.6905 16.3116 20.4601 16.3992 20.2309 16.3992C20.0005 16.3992 19.7689 16.3116 19.5937 16.134C19.2433 15.7812 19.2445 15.2124 19.5961 14.862L21.564 12.9H9.29496C8.79816 12.9 8.39496 12.4968 8.39496 12C8.39496 11.5032 8.79816 11.1 9.29496 11.1H21.5664L19.5961 9.1392C19.2445 8.7888 19.2421 8.22 19.5937 7.8672C19.9441 7.5144 20.5129 7.5144 20.8657 7.8648Z" fill="black"/>
</svg>
