<svg width="24" height="24" viewBox="0 0 24 24" fill="none" xmlns="http://www.w3.org/2000/svg">
<path d="M13.1799 12.49C13.1599 12.33 13.1399 12.17 13.1399 12C13.1399 11.83 13.1599 11.67 13.1799 11.51L12.0999 10.69C11.9999 10.62 11.9799 10.48 12.0399 10.37L13.0699 8.64C13.1299 8.53 13.2699 8.49 13.3799 8.53L14.6599 9.03C14.9299 8.83 15.2199 8.67 15.5299 8.54L15.7299 7.21C15.7299 7.09 15.8399 7 15.9699 7H18.0199C18.1499 7 18.2599 7.09 18.2799 7.21L18.4799 8.53C18.7899 8.65 19.0799 8.83 19.3499 9.02L20.6299 8.52C20.7499 8.47 20.8799 8.52 20.9399 8.63L21.9699 10.36C22.0299 10.48 21.9999 10.61 21.8999 10.69L20.8199 11.51C20.8399 11.67 20.8499 11.84 20.8499 12C20.8499 12.17 20.8299 12.33 20.8099 12.49L21.8999 13.32C21.9999 13.39 22.0199 13.53 21.9599 13.64L20.9299 15.37C20.8699 15.48 20.7299 15.52 20.6199 15.48L19.3399 14.98C19.0699 15.18 18.7799 15.34 18.4699 15.47L18.2699 16.79C18.2599 16.91 18.1499 17 18.0199 17H15.9599C15.8299 17 15.7199 16.91 15.7099 16.79L15.5099 15.47C15.1999 15.35 14.9099 15.17 14.6399 14.98L13.3599 15.48C13.2399 15.53 13.1099 15.48 13.0499 15.37L12.0199 13.64C11.9599 13.53 11.9799 13.4 12.0799 13.32L13.1799 12.49ZM16.9999 13.75C17.9899 13.75 18.7999 12.97 18.7999 12C18.7999 11.03 17.9899 10.25 16.9999 10.25C16.0099 10.25 15.1999 11.03 15.1999 12C15.1999 12.97 15.9999 13.75 16.9999 13.75ZM5.99995 1.01L15.9999 1C17.0999 1 17.9999 1.9 17.9999 3V6H15.9999V5H5.99995V19H15.9999V18H17.9999V21C17.9999 22.1 17.0999 23 15.9999 23H5.99995C4.89995 23 3.99995 22.1 3.99995 21V3C3.99995 1.9 4.89995 1.01 5.99995 1.01Z" fill="black"/>
</svg>
